<svg width="20pt" height="29pt" viewBox="0 0 20 29" xmlns="http://www.w3.org/2000/svg"><g id="fontsvg1683826370967" stroke-linecap="round" fill-rule="evenodd" fill="#000000"><path d="M 2.109 20.332 L 2.109 24.463 L 17.754 24.463 L 17.754 20.361 A 6.481 6.481 0 0 0 16.699 16.787 A 6.599 6.599 0 0 0 13.887 14.326 Q 13.564 14.18 13.389 14.033 A 1.151 1.151 0 0 1 13.491 13.961 Q 13.631 13.873 13.857 13.77 A 6.759 6.759 0 0 0 16.699 11.279 A 6.34 6.34 0 0 0 17.754 7.734 L 17.754 3.604 L 2.109 3.604 L 2.109 7.705 A 6.481 6.481 0 0 0 3.164 11.279 A 6.599 6.599 0 0 0 5.977 13.74 Q 6.299 13.887 6.475 14.033 A 2.865 2.865 0 0 1 6.34 14.117 Q 6.269 14.159 6.186 14.204 A 6.818 6.818 0 0 1 6.006 14.297 A 6.759 6.759 0 0 0 3.164 16.787 A 6.34 6.34 0 0 0 2.109 20.332 Z M 4.131 7.734 L 4.131 5.625 L 15.732 5.625 L 15.732 7.705 Q 15.732 9.053 15.029 10.195 A 4.834 4.834 0 0 1 13.037 11.953 Q 12.452 12.225 12.076 12.541 A 2.455 2.455 0 0 0 11.807 12.803 A 2.046 2.046 0 0 0 11.458 13.331 A 1.702 1.702 0 0 0 11.309 14.033 A 1.816 1.816 0 0 0 11.556 14.939 A 2.46 2.46 0 0 0 11.777 15.264 A 3.158 3.158 0 0 0 12.229 15.657 Q 12.563 15.899 13.008 16.113 Q 14.268 16.699 15 17.871 A 4.383 4.383 0 0 1 15.732 20.332 L 15.732 22.471 L 15.498 22.471 L 12.041 19.834 A 3.339 3.339 0 0 0 9.932 19.102 A 3.4 3.4 0 0 0 7.898 19.778 A 4.204 4.204 0 0 0 7.822 19.834 L 4.395 22.471 L 4.131 22.471 L 4.131 20.361 Q 4.131 19.014 4.834 17.871 A 4.792 4.792 0 0 1 6.835 16.123 A 5.709 5.709 0 0 1 6.855 16.113 A 4.309 4.309 0 0 0 7.395 15.829 Q 7.8 15.575 8.057 15.264 A 2.046 2.046 0 0 0 8.405 14.736 A 1.702 1.702 0 0 0 8.555 14.033 Q 8.555 13.389 8.086 12.832 Q 7.646 12.334 6.855 11.953 Q 5.596 11.367 4.863 10.225 A 4.525 4.525 0 0 1 4.131 7.734 Z M 0 0 L 0 2.607 L 19.863 2.607 L 19.863 0 L 0 0 Z M 0 25.488 L 0 28.066 L 19.863 28.066 L 19.863 25.488 L 0 25.488 Z" vector-effect="non-scaling-stroke"/></g></svg>