<svg width="138pt" height="28pt" viewBox="0 0 138 28" xmlns="http://www.w3.org/2000/svg"><g id="fontsvg1683822607403" stroke-linecap="round" fill-rule="evenodd" fill="#0D627D"><path d="M 101.879 3.839 L 101.689 15.229 Q 101.946 17.976 103.022 19.01 A 2.164 2.164 0 0 0 104.157 19.594 L 106.625 19.594 L 108.141 18.459 L 108.713 17.316 L 108.713 3.839 A 7.667 7.667 0 0 1 109.408 2.182 Q 109.986 1.185 110.82 0.652 A 4.099 4.099 0 0 1 113.078 0.038 Q 115.689 0.346 116.682 2.64 A 6.583 6.583 0 0 1 117.062 3.839 L 116.879 17.887 A 20.133 20.133 0 0 1 115.926 20.729 Q 114.678 23.65 112.697 25.102 A 8.355 8.355 0 0 1 110.49 26.524 Q 108.528 27.417 105.673 27.76 L 102.634 27.57 L 98.84 25.863 A 14.472 14.472 0 0 1 96.042 23.271 A 10.202 10.202 0 0 1 93.713 17.506 L 93.903 2.697 Q 94.957 0.406 97.323 0.077 A 5.658 5.658 0 0 1 97.697 0.038 A 5.92 5.92 0 0 1 99.434 0.469 Q 101.463 1.348 101.879 3.839 Z M 98.268 0.8 L 96.935 0.99 L 96.935 1.554 L 98.268 3.078 L 98.268 17.697 Q 98.84 20.165 100.165 21.308 L 103.395 23.205 L 107.38 23.014 L 110.419 21.681 L 111.752 22.443 L 112.888 23.776 Q 115.007 22.536 115.979 16.533 A 42.39 42.39 0 0 0 116.118 15.609 A 6.717 6.717 0 0 1 116.025 14.911 Q 115.791 12.284 116.114 3.55 A 462.844 462.844 0 0 1 116.118 3.459 L 115.165 1.554 L 113.84 0.8 L 111.752 0.99 L 111.752 1.554 Q 113.268 2.316 113.459 4.213 A 84.056 84.056 0 0 0 113.316 6.86 Q 113.221 9.401 113.316 11.515 A 36.759 36.759 0 0 0 113.459 13.522 A 32.192 32.192 0 0 1 113.393 15.675 Q 113.076 20.375 111.232 20.375 A 1.582 1.582 0 0 1 110.991 20.356 L 109.658 20.165 L 108.713 19.403 L 108.141 19.403 L 106.435 20.546 A 6.14 6.14 0 0 1 105.636 20.609 Q 103.555 20.633 101.985 19.126 A 6.603 6.603 0 0 1 101.879 19.023 L 100.737 16.181 Q 101.064 8.012 100.828 3.922 A 32.734 32.734 0 0 0 100.737 2.697 L 99.975 1.554 L 98.268 0.8 Z M 56.418 1.554 L 58.513 0.419 A 9.907 9.907 0 0 1 58.972 0.383 Q 60.133 0.321 60.888 0.584 A 2.461 2.461 0 0 1 61.354 0.8 L 62.306 1.554 L 68.759 14.086 L 68.759 14.276 L 69.521 14.086 L 75.6 1.935 Q 77.306 -0.152 79.584 0.038 Q 82.814 1.745 83.005 2.697 L 82.814 5.546 L 72.751 25.292 A 5.11 5.11 0 0 1 71.715 26.719 A 4.45 4.45 0 0 1 69.902 27.76 A 6.642 6.642 0 0 1 67.967 27.495 A 4.877 4.877 0 0 1 65.156 25.292 A 1357.058 1357.058 0 0 1 62.925 20.945 Q 55.715 6.828 55.293 5.022 A 1.547 1.547 0 0 1 55.283 4.975 A 1.791 1.791 0 0 1 55.142 4.266 Q 55.142 3.261 56.135 1.918 A 10.336 10.336 0 0 1 56.418 1.554 Z M 65.536 24.149 L 66.108 24.149 L 66.862 22.633 L 69.711 21.498 L 79.013 2.887 L 79.775 1.745 L 80.156 1.745 L 80.156 0.99 Q 77.586 0.475 76.256 2.432 A 5.107 5.107 0 0 0 75.981 2.887 L 69.14 16.554 L 69.33 19.403 L 68.386 20.356 Q 66.801 20.532 66.036 18.76 A 5.358 5.358 0 0 1 65.917 18.459 L 58.886 4.023 L 59.077 2.887 L 60.41 1.554 L 60.219 1.181 Q 58.265 0.691 56.727 2.577 A 7.645 7.645 0 0 0 56.227 3.268 A 2.197 2.197 0 0 0 56.155 3.682 Q 56.063 4.785 56.836 6.663 A 19.009 19.009 0 0 0 57.18 7.443 A 1.184 1.184 0 0 1 57.393 7.746 Q 58.384 9.407 63.589 20.126 A 2119.014 2119.014 0 0 1 65.536 24.149 Z M 30.051 0.038 L 34.994 0.229 Q 39.976 1.229 42.051 5.861 A 13.667 13.667 0 0 1 42.582 7.253 Q 42.773 10.863 42.209 11.435 A 9.261 9.261 0 0 1 41.527 12.964 Q 41.127 13.688 40.572 14.443 A 17.662 17.662 0 0 1 40.114 15.038 A 1.298 1.298 0 0 0 40.078 15.343 Q 40.078 15.984 40.685 16.745 Q 45.051 22.062 44.868 23.014 A 5.493 5.493 0 0 1 44.572 24.876 Q 44.018 26.422 42.427 27.234 A 6.397 6.397 0 0 1 41.638 27.57 L 40.114 27.57 L 38.217 26.618 A 295.006 295.006 0 0 0 36.635 24.528 Q 33.872 20.912 32.936 19.99 A 3.066 3.066 0 0 0 32.709 19.784 L 32.145 25.292 Q 31.648 26.612 30.001 27.36 A 7.264 7.264 0 0 1 29.487 27.57 A 7.544 7.544 0 0 1 28.876 27.629 Q 26.062 27.782 24.9 25.512 A 6.573 6.573 0 0 1 24.36 23.966 L 24.741 3.078 Q 26.233 -0.289 29.932 0.027 A 8.048 8.048 0 0 1 30.051 0.038 Z M 5.112 0.404 L 7.565 0.587 L 20.207 0.214 Q 22.851 0.968 23.415 3.422 L 23.415 4.931 A 11.031 11.031 0 0 1 22.873 5.967 Q 22.245 7.014 21.566 7.471 A 2.118 2.118 0 0 1 20.961 7.758 A 4.596 4.596 0 0 1 20.16 8.008 Q 18.746 8.329 16.054 8.329 L 15.681 8.893 L 15.49 23.234 A 19.402 19.402 0 0 1 15.341 24.081 Q 15.084 25.359 14.757 25.839 A 0.805 0.805 0 0 1 14.545 26.061 A 6.397 6.397 0 0 1 13.622 26.938 Q 13.01 27.406 12.361 27.617 A 3.51 3.51 0 0 1 11.718 27.76 Q 8.32 27.951 7.184 24.362 L 7.375 8.329 A 12.313 12.313 0 0 1 6.329 8.52 Q 1.39 9.193 0.021 4.74 Q -0.157 3.856 1.154 1.815 A 20.164 20.164 0 0 1 1.34 1.532 A 3.639 3.639 0 0 1 2.281 0.978 Q 3.366 0.525 5.112 0.404 Z M 1.34 5.495 L 3.222 3.986 L 8.884 3.986 L 9.828 5.304 L 8.51 7.384 L 8.129 23.798 L 8.32 23.988 L 10.773 21.725 L 11.147 6.249 Q 11.331 4.062 13.807 3.811 A 5.998 5.998 0 0 1 13.981 3.795 L 20.207 3.795 A 0.667 0.667 0 0 1 20.513 3.889 Q 20.945 4.12 21.633 4.926 A 16.391 16.391 0 0 1 22.097 5.495 L 22.47 4.931 A 4.187 4.187 0 0 0 22.561 4.373 Q 22.702 2.824 21.5 1.781 A 5.026 5.026 0 0 0 20.58 1.159 A 1262.574 1262.574 0 0 1 17.107 1.232 Q 4.758 1.472 3.7 1.205 A 0.161 0.161 0 0 1 3.603 1.159 Q 2.468 1.159 0.959 3.612 A 3.468 3.468 0 0 0 0.918 3.982 Q 0.892 4.478 1.027 4.893 A 2.072 2.072 0 0 0 1.34 5.495 Z M 25.495 3.268 L 25.685 23.395 L 27.963 21.498 L 27.963 15.419 Q 28.476 13.545 30.211 13.353 A 3.744 3.744 0 0 1 30.622 13.332 L 31.955 13.903 L 32.526 15.229 L 32.336 17.697 L 37.463 23.966 L 37.646 24.53 L 38.217 24.34 A 6.608 6.608 0 0 1 38.31 23.779 Q 38.524 22.785 38.979 22.633 L 38.979 21.498 L 34.042 15.229 L 33.852 14.276 L 34.804 13.141 A 7.325 7.325 0 0 0 36.201 12.34 Q 38.127 10.904 37.836 8.586 L 37.646 6.872 A 2.356 2.356 0 0 0 37.382 6.473 Q 36.79 5.722 35.178 4.403 L 34.994 2.887 L 35.749 1.371 L 35.178 0.99 L 27.399 1.181 A 3.559 3.559 0 0 0 26.322 2.017 Q 25.979 2.402 25.685 2.913 A 7.007 7.007 0 0 0 25.495 3.268 Z M 121.794 0.214 L 130.092 0.214 L 132.546 1.159 Q 134.435 2.104 135.754 3.986 L 137.072 7.003 L 137.072 10.783 A 14.775 14.775 0 0 1 136.223 12.939 Q 135.66 14.08 134.939 14.947 A 8.182 8.182 0 0 1 134.435 15.5 A 10.416 10.416 0 0 1 130.787 17.664 Q 128.897 18.339 126.511 18.517 A 87.593 87.593 0 0 1 126.54 19.505 Q 126.641 23.825 126.188 24.984 A 1.506 1.506 0 0 1 126.13 25.116 A 6.854 6.854 0 0 1 124.909 26.579 A 5.326 5.326 0 0 1 122.739 27.76 Q 119.222 27.583 118.325 24.794 A 5.574 5.574 0 0 1 118.205 24.362 L 118.395 3.612 A 7.408 7.408 0 0 1 118.952 2.216 Q 119.944 0.358 121.794 0.214 Z M 54.36 3.795 L 53.979 24.179 Q 53.45 27.18 50.765 27.702 A 5.595 5.595 0 0 1 50.397 27.76 A 8.069 8.069 0 0 1 48.722 27.523 Q 46.262 26.876 45.891 24.558 A 4.907 4.907 0 0 1 45.864 24.362 L 46.054 3.232 Q 46.808 0.587 50.016 0.024 Q 53.49 0.973 54.191 2.973 A 3.162 3.162 0 0 1 54.36 3.795 Z M 92.599 3.795 L 92.219 24.179 Q 91.69 27.18 89.004 27.702 A 5.595 5.595 0 0 1 88.637 27.76 A 8.069 8.069 0 0 1 86.962 27.523 Q 84.501 26.876 84.131 24.558 A 4.907 4.907 0 0 1 84.103 24.362 L 84.294 3.232 Q 85.048 0.587 88.256 0.024 Q 91.729 0.973 92.431 2.973 A 3.162 3.162 0 0 1 92.599 3.795 Z M 119.531 2.858 L 119.34 7.003 L 119.34 23.044 L 119.904 22.853 L 121.984 20.78 A 128.255 128.255 0 0 1 121.905 19.571 Q 121.65 15.322 121.979 15.122 A 0.075 0.075 0 0 1 121.984 15.119 Q 123.112 13.229 124.431 13.42 Q 125.002 13.8 129.338 13.42 A 2.088 2.088 0 0 0 130.157 13.091 Q 131.166 12.446 132.355 10.592 L 132.355 7.384 L 131.418 5.876 A 3.049 3.049 0 0 1 129.865 4.819 A 4.589 4.589 0 0 1 129.338 3.986 Q 128.985 3.453 129.973 1.735 A 14.78 14.78 0 0 1 130.092 1.532 L 129.902 1.159 L 121.603 1.159 A 7.678 7.678 0 0 0 120.837 1.548 Q 120.042 2.014 119.695 2.544 A 1.743 1.743 0 0 0 119.531 2.858 Z M 46.999 3.612 L 46.808 15.873 L 46.808 23.798 L 47.372 23.607 L 49.452 21.535 L 49.643 8.329 A 3.961 3.961 0 0 1 49.535 7.801 Q 49.328 6.355 49.643 3.232 A 2.838 2.838 0 0 1 51.03 1.596 A 3.744 3.744 0 0 1 51.152 1.532 L 50.961 1.159 Q 47.944 0.778 46.999 3.612 Z M 85.239 3.612 L 85.048 15.873 L 85.048 23.798 L 85.612 23.607 L 87.692 21.535 L 87.883 8.329 A 3.961 3.961 0 0 1 87.774 7.801 Q 87.567 6.355 87.883 3.232 A 2.838 2.838 0 0 1 89.27 1.596 A 3.744 3.744 0 0 1 89.391 1.532 L 89.201 1.159 Q 86.183 0.778 85.239 3.612 Z M 128.774 5.876 L 128.583 7.003 L 129.719 7.948 Q 130.488 9.333 129.625 10.216 A 2.547 2.547 0 0 1 129.147 10.592 Q 127.829 11.156 125.566 10.966 L 124.057 11.911 L 122.358 11.537 A 0.553 0.553 0 0 1 122.066 11.281 Q 121.836 10.899 121.8 9.994 A 8.848 8.848 0 0 1 121.794 9.648 L 121.984 5.121 Q 122.561 4.254 123.244 3.831 A 2.769 2.769 0 0 1 123.676 3.612 A 12.086 12.086 0 0 1 124.433 3.51 Q 128.149 3.131 128.741 5.72 A 3.949 3.949 0 0 1 128.774 5.876 Z M 33.852 4.784 L 34.042 7.062 L 35.178 8.395 A 3.777 3.777 0 0 1 35.107 9.154 Q 34.919 10.067 34.233 10.482 L 31.574 10.673 L 30.241 11.808 A 3.414 3.414 0 0 1 29.934 11.856 Q 28.338 12.028 27.975 10.347 A 3.786 3.786 0 0 1 27.963 10.292 L 28.154 5.736 A 2.679 2.679 0 0 1 28.683 4.602 Q 29.276 3.877 30.431 3.649 A 8.066 8.066 0 0 1 30.846 3.627 Q 32.982 3.573 33.852 4.784 Z M 126.511 8.512 L 126.701 9.838 A 13.668 13.668 0 0 0 127.006 9.862 Q 128.774 9.978 128.774 9.457 A 2.574 2.574 0 0 0 128.808 9.244 Q 128.846 8.911 128.775 8.66 A 0.895 0.895 0 0 0 128.393 8.139 Q 126.511 7.948 126.511 8.512 Z M 34.042 8.205 L 32.9 8.395 L 33.09 9.721 Q 33.852 9.911 34.233 9.34 L 34.042 8.205 Z" vector-effect="non-scaling-stroke"/></g></svg>